HIERARCHY
ROOT SimulationBone
{
	OFFSET 0.000000 0.000000 0.000000
	CHANNELS 6 Xposition Yposition Zposition Zrotation Yrotation Xrotation 
	JOINT Hips
	{
		OFFSET 0.000000 0.000000 0.000000
		CHANNELS 6 Xposition Yposition Zposition Zrotation Yrotation Xrotation 
		JOINT LeftUpLeg
		{
			OFFSET 0.103457 1.857840 10.548497
			CHANNELS 3 Zrotation Yrotation Xrotation
			JOINT LeftLeg
			{
				OFFSET 43.499996 -0.000046 -0.000021
				CHANNELS 3 Zrotation Yrotation Xrotation
				JOINT LeftFoot
				{
					OFFSET 42.372200 0.000019 0.000010
					CHANNELS 3 Zrotation Yrotation Xrotation
					JOINT LeftToe
					{
						OFFSET 17.299992 -0.000004 -0.000006
						CHANNELS 3 Zrotation Yrotation Xrotation
						End Site
						{
							OFFSET 0.000000 0.000000 0.000000
						}
					}
				}
			}
		}
		JOINT RightUpLeg
		{
			OFFSET 0.103462 1.857830 -10.548500
			CHANNELS 3 Zrotation Yrotation Xrotation
			JOINT RightLeg
			{
				OFFSET 43.500050 -0.000008 0.000013
				CHANNELS 3 Zrotation Yrotation Xrotation
				JOINT RightFoot
				{
					OFFSET 42.372265 -0.000008 0.000010
					CHANNELS 3 Zrotation Yrotation Xrotation
					JOINT RightToe
					{
						OFFSET 17.299980 -0.000009 0.000011
						CHANNELS 3 Zrotation Yrotation Xrotation
						End Site
						{
							OFFSET 0.000000 0.000000 0.000000
						}
					}
				}
			}
		}
		JOINT Spine
		{
			OFFSET 6.901966 -2.603740 0.000004
			CHANNELS 3 Zrotation Yrotation Xrotation
			JOINT Spine1
			{
				OFFSET 12.588106 0.000010 -0.000001
				CHANNELS 3 Zrotation Yrotation Xrotation
				JOINT Spine2
				{
					OFFSET 12.343197 0.000001 -0.000010
					CHANNELS 3 Zrotation Yrotation Xrotation
					JOINT Neck
					{
						OFFSET 25.832893 -0.000006 0.000008
						CHANNELS 3 Zrotation Yrotation Xrotation
						JOINT Head
						{
							OFFSET 11.766615 -0.000006 -0.000000
							CHANNELS 3 Zrotation Yrotation Xrotation
							End Site
							{
								OFFSET 0.000000 0.000000 0.000000
							}
						}
					}
					JOINT LeftShoulder
					{
						OFFSET 19.745903 -1.480366 6.000110
						CHANNELS 3 Zrotation Yrotation Xrotation
						JOINT LeftArm
						{
							OFFSET 11.284130 -0.000010 -0.000024
							CHANNELS 3 Zrotation Yrotation Xrotation
							JOINT LeftForeArm
							{
								OFFSET 33.000046 0.000022 0.000031
								CHANNELS 3 Zrotation Yrotation Xrotation
								JOINT LeftHand
								{
									OFFSET 25.200022 0.000011 0.000002
									CHANNELS 3 Zrotation Yrotation Xrotation
									End Site
									{
										OFFSET 0.000000 0.000000 0.000000
									}
								}
							}
						}
					}
					JOINT RightShoulder
					{
						OFFSET 19.746103 -1.480371 -6.000066
						CHANNELS 3 Zrotation Yrotation Xrotation
						JOINT RightArm
						{
							OFFSET 11.284146 -0.000005 -0.000007
							CHANNELS 3 Zrotation Yrotation Xrotation
							JOINT RightForeArm
							{
								OFFSET 33.000076 0.000011 0.000008
								CHANNELS 3 Zrotation Yrotation Xrotation
								JOINT RightHand
								{
									OFFSET 25.199783 0.000146 0.000422
									CHANNELS 3 Zrotation Yrotation Xrotation
									End Site
									{
										OFFSET 0.000000 0.000000 0.000000
									}
								}
							}
						}
					}
				}
			}
		}
	}
}
MOTION
Frames: 6
Frame Time: 0.016667
-198.656559 0.000000 -216.273113 0.000000 182.630989 0.000000 -1.419856 88.123734 -2.540167 88.514874 -4.595783 -179.829367 169.554651 0.364593 173.591553 -37.004905 -1.317079 0.553013 92.136164 -0.521504 -1.281626 21.454557 0.003092 -0.000000 142.767277 5.638795 -176.657980 -92.300498 -2.907431 -1.141843 91.834802 1.529286 4.549112 21.454553 -0.003108 -0.000017 6.530385 -0.011557 -1.759372 3.047586 0.022341 -3.518430 2.730150 0.001243 -3.518499 16.930304 4.326287 0.147154 -7.548447 -6.424395 2.200602 -160.992130 -85.381135 -20.766413 -15.304301 61.516623 18.266708 -63.940514 -16.422532 2.346501 -4.720940 -15.739271 22.288506 -167.991534 75.198685 13.696822 25.199736 -61.400851 -36.976198 -38.252497 13.697780 -1.355845 6.199107 9.951252 9.958609 
-201.415732 0.000000 -216.021857 0.000000 184.150261 0.000000 -1.703200 88.559618 -2.502159 88.370999 -4.383699 179.822574 171.655680 0.333251 173.925942 -35.034596 -1.132381 0.860455 91.055912 -0.715918 -1.118730 21.454554 0.003090 -0.000000 141.254250 5.220486 -175.179502 -86.112053 -3.027374 -2.425821 91.330206 2.615634 5.612894 21.454560 -0.003108 -0.000020 6.490846 0.052013 -1.958518 2.966269 0.153225 -3.915082 2.648972 0.129734 -3.915934 16.416339 4.629103 0.104396 -7.522622 -6.615622 2.247510 -158.479908 -85.922511 -23.288706 -18.488284 60.735576 15.200480 -66.040364 -15.796873 2.382512 -4.445545 -15.358044 21.322589 -168.086770 74.878650 13.599326 27.405504 -59.946342 -38.860896 -39.815627 13.641231 -1.398752 2.054896 6.310662 0.955468 
-204.117687 0.000000 -215.769812 0.000000 185.611946 0.000000 -1.966459 88.826141 -2.557975 88.054580 -4.317688 179.518781 173.528073 0.467805 174.349280 -33.189702 -0.931362 1.107856 90.227153 -0.876733 -1.017732 21.454553 0.003090 0.000000 139.806923 5.182298 -174.231432 -79.472897 -2.807798 -2.830685 90.223499 2.959393 6.003259 21.454562 -0.003108 -0.000019 6.410401 0.101145 -2.139636 2.803298 0.252991 -4.276254 2.486152 0.227323 -4.277700 15.978309 4.649182 0.065923 -7.595625 -6.622236 2.233105 -156.365522 -86.288788 -25.409742 -21.393985 59.789056 12.120563 -68.143936 -15.010794 2.416534 -4.143436 -14.677329 20.791422 -168.048020 75.087776 13.638979 29.696254 -58.692189 -42.118265 -41.649485 13.939983 -1.460622 0.033344 3.104941 -5.348811 
-206.763657 0.000000 -215.516360 0.000000 187.013835 0.000000 -2.155737 88.904577 -2.642322 87.687400 -4.355074 179.309630 175.242811 0.628801 174.824000 -31.637759 -0.732172 1.365577 89.705530 -1.048624 -0.968859 21.454552 0.003092 0.000000 138.673678 5.397062 -173.605092 -72.299768 -2.648702 -2.706149 88.831322 2.950261 6.246527 21.454559 -0.003109 -0.000017 6.314391 0.138434 -2.304884 2.609422 0.327585 -4.606152 2.292432 0.299930 -4.608039 15.578592 4.479117 0.032444 -7.689885 -6.460934 2.162796 -155.315709 -86.554682 -26.460117 -24.015486 58.707857 9.153772 -70.193925 -14.154834 2.442545 -3.788732 -13.826989 20.692582 -167.943034 75.549739 13.746322 32.061231 -57.516532 -45.808339 -43.686250 14.391885 -1.543767 -0.653614 0.743647 -9.584526 
-209.354877 0.000000 -215.260881 0.000000 188.354416 0.000000 -2.223696 88.776199 -2.685377 87.387895 -4.445182 179.244569 176.868268 0.678802 175.303758 -30.546675 -0.555351 1.701585 89.546552 -1.275325 -0.961856 21.454553 0.003093 -0.000000 138.096630 5.744995 -173.082922 -64.489634 -2.870670 -2.480031 87.483678 2.991800 6.861656 21.454557 -0.003109 -0.000015 6.228129 0.166634 -2.456376 2.435263 0.383590 -4.908817 2.118425 0.354112 -4.911034 15.179271 4.211426 0.002951 -7.728298 -6.148352 2.042089 -155.948988 -86.793175 -25.818642 -26.369872 57.527526 6.404732 -72.135116 -13.319733 2.463149 -3.350074 -12.937701 21.022055 -167.841898 75.988213 13.849563 34.536366 -56.333817 -49.026440 -45.854706 14.795370 -1.637373 -0.660656 -0.638016 -12.229583 
-211.892579 0.000000 -215.002756 0.000000 189.632834 0.000000 -2.159588 88.458589 -2.638499 87.251741 -4.510672 179.357532 178.500069 0.503152 175.792647 -29.930398 -0.424563 2.128297 89.743771 -1.564907 -0.991943 21.454553 0.003093 -0.000000 138.269048 6.109151 -172.570953 -55.956640 -3.525281 -2.522917 86.339623 3.349523 8.050979 21.454555 -0.003108 -0.000015 6.177098 0.192984 -2.595559 2.331530 0.436797 -5.186840 2.014833 0.405645 -5.189371 14.729885 3.945683 -0.031189 -7.652999 -5.743189 1.884581 -158.446307 -87.067724 -23.304298 -28.530496 56.314689 3.900763 -73.917894 -12.575815 2.485464 -2.871787 -12.151591 21.760346 -167.767074 76.208925 13.925896 37.115517 -55.139405 -51.116126 -48.069664 14.997505 -1.720619 -0.494794 -1.062005 -13.705082 
